#tb 0: 1/25
#media_type 0: video
#codec_id 0: rawvideo
#dimensions 0: 416x240
#sar 0: 0/1
0,          0,          0,        1,   149760, 0xcfffa013
0,          1,          1,        1,   149760, 0xec800e71
0,          2,          2,        1,   149760, 0x9fb014c7
0,          3,          3,        1,   149760, 0xfd7a48a8
0,          4,          4,        1,   149760, 0x99816bb5
0,          5,          5,        1,   149760, 0x8645acaa
0,          6,          6,        1,   149760, 0xd2a8e04b
0,          7,          7,        1,   149760, 0xf96f038d
0,          8,          8,        1,   149760, 0x82c62409
0,          9,          9,        1,   149760, 0x64907b29
0,         10,         10,        1,   149760, 0xfe29990e
0,         11,         11,        1,   149760, 0xce2dc52d
0,         12,         12,        1,   149760, 0x164fb2c5
0,         13,         13,        1,   149760, 0xbcf8ca2d
0,         14,         14,        1,   149760, 0xe59dc9bc
0,         15,         15,        1,   149760, 0x2ab10400
0,         16,         16,        1,   149760, 0xef111c81
0,         17,         17,        1,   149760, 0xd08466b1
0,         18,         18,        1,   149760, 0x6d356ff0
0,         19,         19,        1,   149760, 0x16a59175
0,         20,         20,        1,   149760, 0xd7888866
0,         21,         21,        1,   149760, 0x2b22b943
0,         22,         22,        1,   149760, 0x3b4fc3fe
0,         23,         23,        1,   149760, 0x4ec8ee47
0,         24,         24,        1,   149760, 0x0126f17b
0,         25,         25,        1,   149760, 0x1176ad14
0,         26,         26,        1,   149760, 0x2d4da75f
0,         27,         27,        1,   149760, 0x144bb9e4
0,         28,         28,        1,   149760, 0x5176a21b
0,         29,         29,        1,   149760, 0x5e3fe673
0,         30,         30,        1,   149760, 0xa533db65
0,         31,         31,        1,   149760, 0x3009f3f8
0,         32,         32,        1,   149760, 0xd4437e12
0,         33,         33,        1,   149760, 0x5b03cd64
0,         34,         34,        1,   149760, 0xdc40d49b
0,         35,         35,        1,   149760, 0xf8cef0f6
0,         36,         36,        1,   149760, 0x241be1b7
0,         37,         37,        1,   149760, 0x23830404
0,         38,         38,        1,   149760, 0x6ef7087e
0,         39,         39,        1,   149760, 0xaf351e5b
0,         40,         40,        1,   149760, 0x4cf40a64
